<?xml version="1.0" encoding="UTF-8"?>
<svg version="1.1" xmlns="http://www.w3.org/2000/svg" width="87" height="59">
<path d="M0 0 C28.71 0 57.42 0 87 0 C87 19.47 87 38.94 87 59 C58.29 59 29.58 59 0 59 C0 39.53 0 20.06 0 0 Z " fill="#FDFDFD" transform="translate(0,0)"/>
<path d="M0 0 C2.46354141 0.04298436 4.91547436 0.0003151 7.37866211 -0.05078125 C18.72408258 -0.08944202 18.72408258 -0.08944202 22.95849609 2.77148438 C24.71186214 4.77850821 26.03064025 6.7647854 27.40014648 9.04296875 C28.51270936 10.24140481 29.65743399 11.4110926 30.83764648 12.54296875 C32.10608398 13.78046875 32.10608398 13.78046875 33.40014648 15.04296875 C30.48163206 21.35027954 25.8568231 25.8455252 20.40014648 30.04296875 C17.69615439 32.65071706 15.11763006 35.32956247 12.64624023 38.15625 C12.18411133 38.68154297 11.72198242 39.20683594 11.24584961 39.74804688 C10.29564804 40.83267363 9.35307456 41.92402426 8.41772461 43.02148438 C7.02124023 44.59375 7.02124023 44.59375 4.40014648 47.04296875 C0.40014648 47.04296875 0.40014648 47.04296875 -2.05419922 45.05859375 C-2.95227295 44.1459375 -3.85034668 43.23328125 -4.77563477 42.29296875 C-5.26388229 41.80143311 -5.75212982 41.30989746 -6.25517273 40.8034668 C-7.81713595 39.22575701 -9.36445842 37.63446992 -10.91235352 36.04296875 C-11.94208224 35.00174282 -12.97267298 33.96136865 -14.00415039 32.921875 C-19.3969586 27.4632336 -24.6499707 21.91077493 -29.59985352 16.04296875 C-28.21666955 14.38314799 -26.82276719 12.7314885 -25.38671875 11.1171875 C-23.58096741 9.09490019 -23.58096741 9.09490019 -22.14306641 6.9375 C-16.25955545 -0.56355867 -8.79012078 -0.18281623 0 0 Z " fill="#7B948A" transform="translate(45.599853515625,3.95703125)"/>
<path d="M0 0 C2.97 0.33 5.94 0.66 9 1 C9 1.66 9 2.32 9 3 C11.52902121 4.01705701 14.06056757 5.02324632 16.60546875 6 C17.45753906 6.33 18.30960938 6.66 19.1875 7 C20.04730469 7.33 20.90710937 7.66 21.79296875 8 C24 9 24 9 26 11 C26 11.99 26 12.98 26 14 C20.06 14 14.12 14 8 14 C12.25937358 19.01386085 12.25937358 19.01386085 16.0625 20 C19.53101331 20 20.4041661 19.14827633 23 17 C23.99 17.33 24.98 17.66 26 18 C26 18.99 26 19.98 26 21 C22.40537669 23.25998595 19.43404325 23.20868087 15.25 23.125 C14.07953125 23.10695313 12.9090625 23.08890625 11.703125 23.0703125 C10.81109375 23.04710938 9.9190625 23.02390625 9 23 C9.61489323 27.21085108 11.08954576 30.43282349 13.0625 34.1875 C16 39.79294118 16 39.79294118 16 42 C17.98 41.505 17.98 41.505 20 41 C19.67 42.32 19.34 43.64 19 45 C15 45 15 45 12.5456543 43.015625 C11.64758057 42.10296875 10.74950684 41.1903125 9.82421875 40.25 C9.33597122 39.75846436 8.84772369 39.26692871 8.34468079 38.76049805 C6.78271757 37.18278826 5.2353951 35.59150117 3.6875 34 C2.65777128 32.95877407 1.62718053 31.9183999 0.59570312 30.87890625 C-4.79710508 25.42026485 -10.05011718 19.86780618 -15 14 C-14.56856689 13.49186768 -14.13713379 12.98373535 -13.69262695 12.46020508 C-13.19593506 11.8752124 -12.69924316 11.29021973 -12.1875 10.6875 C-11.1359228 9.44897574 -10.07340274 8.21965713 -9 7 C-8.5359375 6.4328125 -8.071875 5.865625 -7.59375 5.28125 C-5.43138464 3.54287785 -4.04705989 3.69360609 -1.3125 3.8125 C-0.10013672 3.85310547 -0.10013672 3.85310547 1.13671875 3.89453125 C1.75160156 3.92933594 2.36648437 3.96414063 3 4 C3 3.01 3 2.02 3 1 C2.01 0.67 1.02 0.34 0 0 Z " fill="#4F6F63" transform="translate(31,6)"/>
<path d="M0 0 C1.17230919 -0.01285538 1.17230919 -0.01285538 2.36830139 -0.02597046 C4.01819999 -0.03743559 5.66819967 -0.03847316 7.31811523 -0.02978516 C9.83688555 -0.02346453 12.35095157 -0.07038039 14.86914062 -0.12109375 C16.47525451 -0.12564039 18.08138098 -0.12704642 19.6875 -0.125 C20.81115211 -0.15262924 20.81115211 -0.15262924 21.95750427 -0.18081665 C24.91865009 -0.12867408 27.22717365 0.01814751 29.53103638 1.98614502 C30.92407227 3.64697266 30.92407227 3.64697266 32.91015625 6.6015625 C32.25015625 6.6015625 31.59015625 6.6015625 30.91015625 6.6015625 C31.40515625 9.5715625 31.40515625 9.5715625 31.91015625 12.6015625 C30.26015625 13.2615625 28.61015625 13.9215625 26.91015625 14.6015625 C26.41515625 12.1265625 26.41515625 12.1265625 25.91015625 9.6015625 C24.92015625 10.5915625 23.93015625 11.5815625 22.91015625 12.6015625 C23.57015625 12.6015625 24.23015625 12.6015625 24.91015625 12.6015625 C24.91015625 13.2615625 24.91015625 13.9215625 24.91015625 14.6015625 C22.91015625 14.6015625 20.91015625 14.6015625 18.91015625 14.6015625 C18.39453125 14.0240625 17.87890625 13.4465625 17.34765625 12.8515625 C14.48418731 10.2083604 11.69741444 9.00998113 8.12890625 7.53125 C6.00339613 6.64063132 3.95944597 5.65415222 1.91015625 4.6015625 C1.91015625 3.9415625 1.91015625 3.2815625 1.91015625 2.6015625 C-0.06984375 2.6015625 -2.04984375 2.6015625 -4.08984375 2.6015625 C-4.08984375 3.5915625 -4.08984375 4.5815625 -4.08984375 5.6015625 C-6.96484375 6.2265625 -6.96484375 6.2265625 -10.08984375 6.6015625 C-10.74984375 5.9415625 -11.40984375 5.2815625 -12.08984375 4.6015625 C-8.67380266 0.11567159 -5.30119417 -0.01286482 0 0 Z " fill="#82988F" transform="translate(38.08984375,4.3984375)"/>
<path d="M0 0 C-1.5280389 5.09882455 -3.71036856 9.65665659 -6.125 14.375 C-6.49753906 15.11105469 -6.87007812 15.84710938 -7.25390625 16.60546875 C-8.1656122 18.40550358 -9.08229932 20.20301402 -10 22 C-10.66 22 -11.32 22 -12 22 C-13.37216028 19.61298157 -14.72243979 17.21744946 -16.0625 14.8125 C-16.45244141 14.13896484 -16.84238281 13.46542969 -17.24414062 12.77148438 C-20.05682797 7.66882149 -20.05682797 7.66882149 -19.74609375 4.01171875 C-19.49988281 3.34785156 -19.25367188 2.68398438 -19 2 C-17.66195312 2.03480469 -17.66195312 2.03480469 -16.296875 2.0703125 C-15.12640625 2.08835937 -13.9559375 2.10640625 -12.75 2.125 C-11.58984375 2.14820313 -10.4296875 2.17140625 -9.234375 2.1953125 C-5.74512208 1.98460882 -3.2946294 0 0 0 Z " fill="#F6F7F7" transform="translate(59,26)"/>
<path d="M0 0 C3.43927579 1.2419607 6.25207819 2.55740284 9 5 C9 5.66 9 6.32 9 7 C9.9075 6.95875 10.815 6.9175 11.75 6.875 C14.8782046 6.99531556 16.38614006 7.3914708 19 9 C19 9.66 19 10.32 19 11 C9.1 11 -0.8 11 -11 11 C-10.34 8.69 -9.68 6.38 -9 4 C-7.02 3.67 -5.04 3.34 -3 3 C-3.33 4.98 -3.66 6.96 -4 9 C-3.34 9 -2.68 9 -2 9 C-2.04125 8.071875 -2.0825 7.14375 -2.125 6.1875 C-2 3 -2 3 0 0 Z " fill="#6B857B" transform="translate(36,8)"/>
<path d="M0 0 C4.29238623 1.65091778 6.8793915 4.73754566 10 8 C8.4169423 12.2742558 5.49431596 14.26531794 2 17 C3.20381448 14.50638429 4.45428722 12.31856917 6 10 C5.34 10.66 4.68 11.32 4 12 C3.01 12 2.02 12 1 12 C1 11.01 1 10.02 1 9 C-2.3 9 -5.6 9 -9 9 C-9 8.01 -9 7.02 -9 6 C-7.515 6.99 -7.515 6.99 -6 8 C-6 7.34 -6 6.68 -6 6 C-6.66 6 -7.32 6 -8 6 C-7.67 5.01 -7.34 4.02 -7 3 C-6.34 3 -5.68 3 -5 3 C-4.67 4.32 -4.34 5.64 -4 7 C-2.68 6.67 -1.36 6.34 0 6 C0 4.02 0 2.04 0 0 Z " fill="#416556" transform="translate(69,11)"/>
<path d="M0 0 C1.98 0 3.96 0 6 0 C11.859375 11.71875 11.859375 11.71875 12.91601562 13.84765625 C13.6586491 15.32221858 14.41871696 16.78809248 15.19335938 18.24609375 C16.18577223 20.13526521 17.09987601 22.06515404 18 24 C17.67 24.66 17.34 25.32 17 26 C1.83870968 5.51612903 1.83870968 5.51612903 0 0 Z " fill="#E7EAE9" transform="translate(26,20)"/>
<path d="M0 0 C1.98 0 3.96 0 6 0 C3.18670995 5.03396577 0.19611674 9.88848229 -3 14.6875 C-3.42539062 15.33783203 -3.85078125 15.98816406 -4.2890625 16.65820312 C-6.5970861 20.13085827 -8.90128713 23.16668615 -12 26 C-10.64541927 21.51842693 -8.84241064 17.64672702 -6.5625 13.5625 C-4.11587731 9.10760786 -1.86770192 4.7241872 0 0 Z " fill="#EFF2F1" transform="translate(64,20)"/>
<path d="M0 0 C2.97 0.33 5.94 0.66 9 1 C9 1.66 9 2.32 9 3 C7.68 2.67 6.36 2.34 5 2 C4.34 4.97 3.68 7.94 3 11 C2.34 11 1.68 11 1 11 C1.33 9.02 1.66 7.04 2 5 C1.34 5 0.68 5 0 5 C-0.33 5.66 -0.66 6.32 -1 7 C-1.99 6.67 -2.98 6.34 -4 6 C-4 7.65 -4 9.3 -4 11 C-4.66 11 -5.32 11 -6 11 C-6 11.66 -6 12.32 -6 13 C-7.98 13 -9.96 13 -12 13 C-12 9.64373674 -11.72612181 9.18720687 -9.5625 6.8125 C-6.80161912 4.13106893 -4.95413825 3.60685243 -1.125 3.625 C0.25236604 3.72046101 1.62916461 3.83549975 3 4 C3 3.01 3 2.02 3 1 C2.01 0.67 1.02 0.34 0 0 Z " fill="#4B6C5F" transform="translate(31,6)"/>
<path d="M0 0 C2.9375 2.5 2.9375 2.5 5 5 C4.34 5 3.68 5 3 5 C3.33 6.98 3.66 8.96 4 11 C2.35 11.66 0.7 12.32 -1 13 C-1.12375 12.195625 -1.2475 11.39125 -1.375 10.5625 C-1.58125 9.716875 -1.7875 8.87125 -2 8 C-2.66 7.67 -3.32 7.34 -4 7 C-3.34 7 -2.68 7 -2 7 C-2 6.34 -2 5.68 -2 5 C-1.01 4.67 -0.02 4.34 1 4 C-1.475 3.01 -1.475 3.01 -4 2 C-3.67 3.32 -3.34 4.64 -3 6 C-3.66 6 -4.32 6 -5 6 C-5.99 7.485 -5.99 7.485 -7 9 C-7 6.69 -7 4.38 -7 2 C-7.99 1.67 -8.98 1.34 -10 1 C-6.36217368 -0.21260877 -3.82264001 -0.39544552 0 0 Z " fill="#728C81" transform="translate(66,6)"/>
<path d="M0 0 C5.61 0 11.22 0 17 0 C15.73400961 3.79797116 14.37545234 4.89971854 11 7 C6.15404518 7 3.43524819 5.33421148 0 2 C0 1.34 0 0.68 0 0 Z " fill="#D0D8D5" transform="translate(39,20)"/>
<path d="M0 0 C-0.33 1.98 -0.66 3.96 -1 6 C-0.34 6 0.32 6 1 6 C1 4.02 1 2.04 1 0 C2.65 0.33 4.3 0.66 6 1 C5.67 2.98 5.34 4.96 5 7 C3.58366664 7.16947579 2.16691467 7.33545507 0.75 7.5 C-0.43335938 7.63921875 -0.43335938 7.63921875 -1.640625 7.78125 C-4 8 -4 8 -8 8 C-7.34 5.69 -6.68 3.38 -6 1 C-3.92446352 0.4465236 -2.15634036 0 0 0 Z " fill="#9BACA6" transform="translate(33,11)"/>
<path d="M0 0 C2.31 0 4.62 0 7 0 C8.98 3.96 10.96 7.92 13 12 C10 12 10 12 7.625 9.6875 C6.75875 8.800625 5.8925 7.91375 5 7 C4.071875 6.484375 3.14375 5.96875 2.1875 5.4375 C1.465625 4.963125 0.74375 4.48875 0 4 C0 2.68 0 1.36 0 0 Z " fill="#A0B0A9" transform="translate(19,20)"/>
<path d="M0 0 C0.79339783 0.00565979 1.58679565 0.01131958 2.40423584 0.01715088 C4.93156973 0.03949353 7.45747165 0.08968324 9.984375 0.140625 C11.70050032 0.16069286 13.41664792 0.17894313 15.1328125 0.1953125 C19.3338828 0.23935105 23.53388635 0.30836174 27.734375 0.390625 C27.734375 0.720625 27.734375 1.050625 27.734375 1.390625 C11.894375 1.885625 11.894375 1.885625 -4.265625 2.390625 C-4.265625 3.380625 -4.265625 4.370625 -4.265625 5.390625 C-7.140625 6.015625 -7.140625 6.015625 -10.265625 6.390625 C-10.925625 5.730625 -11.585625 5.070625 -12.265625 4.390625 C-8.81412222 -0.20607686 -5.36508032 -0.1444461 0 0 Z " fill="#E1E7E5" transform="translate(38.265625,4.609375)"/>
<path d="M0 0 C0.66 0.33 1.32 0.66 2 1 C0.7934375 2.11375 0.7934375 2.11375 -0.4375 3.25 C-3.10956137 5.64424773 -3.10956137 5.64424773 -3.4375 8.0625 C-4.38573904 11.32865668 -7.20797425 12.33666551 -10 14 C-10 7.96095296 -8.97578159 5.61703669 -5 1 C-5 1.66 -5 2.32 -5 3 C-4.21625 2.484375 -3.4325 1.96875 -2.625 1.4375 C-1.75875 0.963125 -0.8925 0.48875 0 0 Z " fill="#91A69D" transform="translate(75,20)"/>
<path d="M0 0 C2.125 0.375 2.125 0.375 4 1 C4 1.99 4 2.98 4 4 C0.78817851 5.90608098 -1.53882603 6.22266247 -5.25 6.125 C-6.14203125 6.10695313 -7.0340625 6.08890625 -7.953125 6.0703125 C-8.96632813 6.03550781 -8.96632813 6.03550781 -10 6 C-10 5.34 -10 4.68 -10 4 C-11.65 3.67 -13.3 3.34 -15 3 C-13.25 1.875 -13.25 1.875 -11 1 C-9.65812182 1.6492959 -8.32520503 2.31731862 -7 3 C-3.65022937 2.68097423 -2.40820361 2.40820361 0 0 Z " fill="#758D83" transform="translate(53,23)"/>
<path d="M0 0 C1.4540625 0.0309375 1.4540625 0.0309375 2.9375 0.0625 C3.5975 1.3825 4.2575 2.7025 4.9375 4.0625 C4.2775 4.7225 3.6175 5.3825 2.9375 6.0625 C4.2575 6.7225 5.5775 7.3825 6.9375 8.0625 C5.9475 8.3925 4.9575 8.7225 3.9375 9.0625 C3.2775 9.7225 2.6175 10.3825 1.9375 11.0625 C-1.0737389 8.0512611 -2.57564051 4.99205723 -4.0625 1.0625 C-3.0625 0.0625 -3.0625 0.0625 0 0 Z " fill="#6C877C" transform="translate(36.0625,19.9375)"/>
<path d="M0 0 C2.6486859 3.19668988 4.93992341 6.39486597 7 10 C6.01 10.99 5.02 11.98 4 13 C1.03 10.03 -1.94 7.06 -5 4 C-4.34 3.34 -3.68 2.68 -3 2 C-1.35 3.98 0.3 5.96 2 8 C1.67 7.01 1.34 6.02 1 5 C0.65179959 3.33637583 0.31595508 1.67004829 0 0 Z " fill="#768E85" transform="translate(28,24)"/>
<path d="M0 0 C0.53625 0.33 1.0725 0.66 1.625 1 C1.625 1.66 1.625 2.32 1.625 3 C-3.325 3 -8.275 3 -13.375 3 C-13.375 2.34 -13.375 1.68 -13.375 1 C-8.7894409 -1.15791017 -4.79549823 -2.01915715 0 0 Z " fill="#DFE4E2" transform="translate(53.375,16)"/>
<path d="M0 0 C2.31 0.33 4.62 0.66 7 1 C6.3125 3.4375 6.3125 3.4375 5 6 C2.375 6.8125 2.375 6.8125 0 7 C0 6.34 0 5.68 0 5 C-0.99 4.67 -1.98 4.34 -3 4 C-2.01 2.68 -1.02 1.36 0 0 Z " fill="#637F73" transform="translate(57,19)"/>
<path d="M0 0 C0.66 0.66 1.32 1.32 2 2 C1.67 2.99 1.34 3.98 1 5 C1 5.99 1 6.98 1 8 C-0.96185416 9.71140469 -2.96302383 11.37873325 -5 13 C-5.33 13.66 -5.66 14.32 -6 15 C-6.66 15 -7.32 15 -8 15 C-6.51194289 9.19657726 -3.40902445 4.82409121 0 0 Z " fill="#7A9389" transform="translate(64,28)"/>
<path d="M0 0 C1.22589844 0.01353516 1.22589844 0.01353516 2.4765625 0.02734375 C3.41628906 0.04474609 3.41628906 0.04474609 4.375 0.0625 C3.055 1.7125 1.735 3.3625 0.375 5.0625 C-2.595 4.5675 -2.595 4.5675 -5.625 4.0625 C-5.955 3.0725 -6.285 2.0825 -6.625 1.0625 C-4.21954362 -0.14022819 -2.67503047 -0.03821472 0 0 Z " fill="#EDF0EF" transform="translate(49.625,21.9375)"/>
<path d="M0 0 C0 2.97 0 5.94 0 9 C-2.64 7.68 -5.28 6.36 -8 5 C-3 0 -3 0 0 0 Z " fill="#EEF0EF" transform="translate(58,9)"/>
<path d="M0 0 C0.71800781 0.29003906 1.43601563 0.58007812 2.17578125 0.87890625 C3.97785325 1.59425157 5.78727127 2.29153824 7.60546875 2.96484375 C8.45753906 3.28582031 9.30960938 3.60679688 10.1875 3.9375 C11.04730469 4.25589844 11.90710938 4.57429687 12.79296875 4.90234375 C15 6 15 6 17 9 C16.01 9.495 16.01 9.495 15 10 C15 9.34 15 8.68 15 8 C14.00419922 7.88785156 14.00419922 7.88785156 12.98828125 7.7734375 C4.87812194 6.56579334 4.87812194 6.56579334 1.875 2.875 C1.25625 1.92625 0.6375 0.9775 0 0 Z " fill="#5C7A6E" transform="translate(40,9)"/>
<path d="M0 0 C4.29 0 8.58 0 13 0 C11.35 1.65 9.7 3.3 8 5 C4.35446828 3.7191375 2.83328987 2.83328987 0 0 Z " fill="#DBE1DF" transform="translate(41,8)"/>
<path d="M0 0 C3.39417765 3.12621626 5.6062718 5.56541027 7 10 C3.64084842 8.56036361 1.28375062 6.87583411 -1 4 C-0.75 1.75 -0.75 1.75 0 0 Z " fill="#4D6D5F" transform="translate(34,34)"/>
<path d="M0 0 C0.66 0.33 1.32 0.66 2 1 C2 1.66 2 2.32 2 3 C3.32 2.67 4.64 2.34 6 2 C5.67 3.32 5.34 4.64 5 6 C3.68 6 2.36 6 1 6 C-0.0625 4.125 -0.0625 4.125 -1 2 C-0.67 1.34 -0.34 0.68 0 0 Z " fill="#48695C" transform="translate(45,45)"/>
<path d="M0 0 C1.39456452 0.00667256 2.78911118 0.01863093 4.18359375 0.03515625 C4.89451172 0.03966797 5.60542969 0.04417969 6.33789062 0.04882812 C8.09899388 0.06064761 9.86005411 0.07858362 11.62109375 0.09765625 C11.62109375 1.08765625 11.62109375 2.07765625 11.62109375 3.09765625 C7.10491776 3.17420161 3.03024158 3.19994321 -1.37890625 2.09765625 C-1.70890625 2.75765625 -2.03890625 3.41765625 -2.37890625 4.09765625 C-3.03890625 3.10765625 -3.69890625 2.11765625 -4.37890625 1.09765625 C-3.37890625 0.09765625 -3.37890625 0.09765625 0 0 Z " fill="#2F5544" transform="translate(20.37890625,17.90234375)"/>
<path d="M0 0 C2.125 0.375 2.125 0.375 4 1 C4 2.32 4 3.64 4 5 C2.02 5 0.04 5 -2 5 C-2 2 -2 2 0 0 Z " fill="#7F978D" transform="translate(21,14)"/>
<path d="M0 0 C0.86625 0.33 1.7325 0.66 2.625 1 C5.95718275 1.98731341 8.55159538 2.16420974 12 2 C12 2.66 12 3.32 12 4 C2.58997722 4.3690205 2.58997722 4.3690205 -2 2 C-1.34 1.34 -0.68 0.68 0 0 Z " fill="#305646" transform="translate(40,24)"/>
<path d="M0 0 C1.32 0.66 2.64 1.32 4 2 C3.67 2.99 3.34 3.98 3 5 C0.9375 5.6875 0.9375 5.6875 -1 6 C-1.625 4.125 -1.625 4.125 -2 2 C-1.34 1.34 -0.68 0.68 0 0 Z " fill="#E4E9E7" transform="translate(66,13)"/>
<path d="M0 0 C2.6875 0.3125 2.6875 0.3125 5 1 C5 1.99 5 2.98 5 4 C2.125 4.625 2.125 4.625 -1 5 C-1.66 4.34 -2.32 3.68 -3 3 C-1.8125 1.4375 -1.8125 1.4375 0 0 Z " fill="#ABB9B3" transform="translate(29,6)"/>
<path d="M0 0 C2.4375 0.375 2.4375 0.375 5 1 C5.33 1.66 5.66 2.32 6 3 C4.68 3 3.36 3 2 3 C2 3.66 2 4.32 2 5 C0.68 5.33 -0.64 5.66 -2 6 C-1.67 4.68 -1.34 3.36 -1 2 C-1 2.66 -1 3.32 -1 4 C-0.34 4 0.32 4 1 4 C0.67 2.68 0.34 1.36 0 0 Z " fill="#B9C7C1" transform="translate(62,8)"/>
<path d="M0 0 C0.66 0.33 1.32 0.66 2 1 C2 1.66 2 2.32 2 3 C3.32 3.66 4.64 4.32 6 5 C6 5.33 6 5.66 6 6 C4.02 6 2.04 6 0 6 C-0.38218767 4.34385343 -0.71395102 2.67542976 -1 1 C-0.67 0.67 -0.34 0.34 0 0 Z " fill="#889E95" transform="translate(70,13)"/>
<path d="M0 0 C2.1875 0.3125 2.1875 0.3125 4 1 C3.01 1.495 3.01 1.495 2 2 C2 3.65 2 5.3 2 7 C1.34 7 0.68 7 0 7 C-1.625 5 -1.625 5 -3 3 C-1.75 1.4375 -1.75 1.4375 0 0 Z " fill="#5D7A6E" transform="translate(25,10)"/>
<path d="M0 0 C1.32 0.33 2.64 0.66 4 1 C3.67 2.98 3.34 4.96 3 7 C2.01 6.67 1.02 6.34 0 6 C0 4.02 0 2.04 0 0 Z " fill="#F5F7F6" transform="translate(35,11)"/>
<path d="M0 0 C3.93673644 1.31224548 6.22719294 2.91910327 9 6 C7.35 6.33 5.7 6.66 4 7 C3.896875 6.401875 3.79375 5.80375 3.6875 5.1875 C2.91123545 2.71756736 1.92911079 1.67748765 0 0 Z " fill="#C0CBC7" transform="translate(36,8)"/>
<path d="M0 0 C0.33 1.65 0.66 3.3 1 5 C0.34 5 -0.32 5 -1 5 C-1.99 6.485 -1.99 6.485 -3 8 C-3 5.69 -3 3.38 -3 1 C-3.99 0.67 -4.98 0.34 -6 0 C-3 -1 -3 -1 0 0 Z " fill="#406354" transform="translate(62,7)"/>
<path d="M0 0 C0.66 0 1.32 0 2 0 C2.12375 0.61875 2.2475 1.2375 2.375 1.875 C2.87197356 4.19120832 2.87197356 4.19120832 5 6 C2.69 6 0.38 6 -2 6 C-2 5.01 -2 4.02 -2 3 C-0.515 3.99 -0.515 3.99 1 5 C1 4.34 1 3.68 1 3 C0.34 3 -0.32 3 -1 3 C-0.67 2.01 -0.34 1.02 0 0 Z " fill="#365D4D" transform="translate(62,14)"/>
<path d="M0 0 C2.0625 0.4375 2.0625 0.4375 4 1 C2.38405168 3.04119788 0.7143618 5.04072937 -1 7 C-1.66 7 -2.32 7 -3 7 C-1.125 1.125 -1.125 1.125 0 0 Z " fill="#426555" transform="translate(59,36)"/>
<path d="M0 0 C0.99 0 1.98 0 3 0 C3.33 1.65 3.66 3.3 4 5 C2.35 4.67 0.7 4.34 -1 4 C-0.67 2.68 -0.34 1.36 0 0 Z " fill="#E1E6E4" transform="translate(27,12)"/>
<path d="M0 0 C0.66 0.99 1.32 1.98 2 3 C0.35 5.31 -1.3 7.62 -3 10 C-3.33 9.34 -3.66 8.68 -4 8 C-3.22265625 6.0546875 -3.22265625 6.0546875 -2.0625 3.875 C-1.49208984 2.78832031 -1.49208984 2.78832031 -0.91015625 1.6796875 C-0.60980469 1.12539063 -0.30945312 0.57109375 0 0 Z " fill="#D9E0DD" transform="translate(56,36)"/>
<path d="M0 0 C1.65 0 3.3 0 5 0 C5.33 0.99 5.66 1.98 6 3 C3.625 4.5625 3.625 4.5625 1 6 C0.34 5.67 -0.32 5.34 -1 5 C0.32 4.01 1.64 3.02 3 2 C2.01 1.34 1.02 0.68 0 0 Z " fill="#839891" transform="translate(50,7)"/>
<path d="M0 0 C2.31 0.33 4.62 0.66 7 1 C5.35 2.32 3.7 3.64 2 5 C1.34 4.34 0.68 3.68 0 3 C0 2.01 0 1.02 0 0 Z " fill="#A4B4AE" transform="translate(36,26)"/>
</svg>
